<svg width="20" height="21" viewBox="0 0 20 21" fill="none" xmlns="http://www.w3.org/2000/svg">
<g clip-path="url(#clip0_14_394)">
<path d="M19.2682 8.05727L12.9474 1.7356C12.1651 0.955591 11.1055 0.517578 10.0007 0.517578C8.89602 0.517578 7.83637 0.955591 7.05408 1.7356L0.733243 8.05727C0.500264 8.28875 0.315551 8.56418 0.189811 8.86759C0.0640718 9.17099 -0.000192912 9.49634 0.000742488 9.82477V18.0056C0.000742488 18.6686 0.264135 19.3045 0.732976 19.7734C1.20182 20.2422 1.8377 20.5056 2.50074 20.5056H17.5007C18.1638 20.5056 18.7997 20.2422 19.2685 19.7734C19.7374 19.3045 20.0007 18.6686 20.0007 18.0056V9.82477C20.0017 9.49634 19.9374 9.17099 19.8117 8.86759C19.6859 8.56418 19.5012 8.28875 19.2682 8.05727ZM12.5007 18.8389H7.50074V15.5606C7.50074 14.8976 7.76413 14.2617 8.23298 13.7928C8.70182 13.324 9.3377 13.0606 10.0007 13.0606C10.6638 13.0606 11.2997 13.324 11.7685 13.7928C12.2374 14.2617 12.5007 14.8976 12.5007 15.5606V18.8389ZM18.3341 18.0056C18.3341 18.2266 18.2463 18.4386 18.09 18.5949C17.9337 18.7511 17.7218 18.8389 17.5007 18.8389H14.1674V15.5606C14.1674 14.4555 13.7284 13.3957 12.947 12.6143C12.1656 11.8329 11.1058 11.3939 10.0007 11.3939C8.89567 11.3939 7.83587 11.8329 7.05446 12.6143C6.27306 13.3957 5.83408 14.4555 5.83408 15.5606V18.8389H2.50074C2.27973 18.8389 2.06777 18.7511 1.91149 18.5949C1.75521 18.4386 1.66741 18.2266 1.66741 18.0056V9.82477C1.66818 9.60392 1.7559 9.39225 1.91158 9.2356L8.23241 2.91643C8.70216 2.44887 9.33796 2.18639 10.0007 2.18639C10.6635 2.18639 11.2993 2.44887 11.7691 2.91643L18.0899 9.2381C18.245 9.39414 18.3326 9.60478 18.3341 9.82477V18.0056Z" fill="#344054"/>
</g>
<defs>
<clipPath id="clip0_14_394">
<rect width="20" height="20" fill="white" transform="translate(0 0.5)"/>
</clipPath>
</defs>
</svg>
