<svg width="20" height="21" viewBox="0 0 20 21" fill="none" xmlns="http://www.w3.org/2000/svg">
<path d="M19.2682 1.23232C18.7992 0.764047 18.1635 0.50104 17.5007 0.50104C16.838 0.50104 16.2023 0.764047 15.7332 1.23232L10.1441 6.82148C9.83344 7.13014 9.58716 7.49738 9.41951 7.90192C9.25186 8.30646 9.16617 8.74025 9.1674 9.17815V10.4998C9.1674 10.7208 9.2552 10.9328 9.41148 11.0891C9.56776 11.2454 9.77972 11.3331 10.0007 11.3331H11.3224C11.7603 11.3342 12.194 11.2484 12.5985 11.0808C13.003 10.9131 13.3703 10.667 13.6791 10.3565L19.2682 4.76732C20.2382 3.83648 20.2382 2.16315 19.2682 1.23232ZM18.0899 3.58898L12.5007 9.17815C12.1857 9.49315 11.7674 9.66648 11.3224 9.66648H10.8341V9.17815C10.8341 8.73982 11.0124 8.30982 11.3224 7.99982L16.9116 2.41065C17.0678 2.25442 17.2798 2.16666 17.5007 2.16666C17.7217 2.16666 17.9336 2.25442 18.0899 2.41065C18.2453 2.56735 18.3325 2.77911 18.3325 2.99982C18.3325 3.22052 18.2453 3.43228 18.0899 3.58898ZM10.0007 15.4998C9.77972 15.4998 9.56776 15.412 9.41148 15.2557C9.2552 15.0995 9.1674 14.8875 9.1674 14.6665C9.1674 14.4455 9.2552 14.2335 9.41148 14.0772C9.56776 13.9209 9.77972 13.8331 10.0007 13.8331H12.5007C12.7217 13.8331 12.9337 13.9209 13.09 14.0772C13.2463 14.2335 13.3341 14.4455 13.3341 14.6665C13.3341 14.8875 13.2463 15.0995 13.09 15.2557C12.9337 15.412 12.7217 15.4998 12.5007 15.4998H10.0007ZM16.6674 12.1665V16.3331C16.6674 18.6306 14.7982 20.4998 12.5007 20.4998H4.1674C1.8699 20.4998 0.000732422 18.6306 0.000732422 16.3331V4.66648C0.000732422 2.36898 1.8699 0.499817 4.1674 0.499817H11.6674C11.8884 0.499817 12.1004 0.587614 12.2567 0.743895C12.4129 0.900175 12.5007 1.11214 12.5007 1.33315C12.5007 1.55416 12.4129 1.76613 12.2567 1.92241C12.1004 2.07869 11.8884 2.16648 11.6674 2.16648H4.1674C2.78907 2.16648 1.6674 3.28815 1.6674 4.66648V16.3331C1.6674 17.7115 2.78907 18.8331 4.1674 18.8331H12.5007C13.8791 18.8331 15.0007 17.7115 15.0007 16.3331V12.1665C15.0007 11.9455 15.0885 11.7335 15.2448 11.5772C15.4011 11.4209 15.6131 11.3331 15.8341 11.3331C16.0551 11.3331 16.267 11.4209 16.4233 11.5772C16.5796 11.7335 16.6674 11.9455 16.6674 12.1665ZM7.6399 10.2223L6.23407 11.6281C5.89962 11.9646 5.44777 12.1583 4.97349 12.1686C4.49921 12.1788 4.03941 12.0048 3.69073 11.6832L3.13323 11.2006C2.97564 11.0533 2.88127 10.8506 2.86995 10.6351C2.85863 10.4197 2.93123 10.2082 3.07251 10.0451C3.2138 9.88206 3.41277 9.78008 3.62765 9.7606C3.84252 9.74112 4.05659 9.80565 4.2249 9.94065L4.79907 10.439C4.8849 10.5165 4.98907 10.5156 5.0549 10.4498L6.46073 9.04398C6.61699 8.88773 6.82892 8.79994 7.0499 8.79994C7.27088 8.79994 7.48281 8.88773 7.63907 9.04398C7.79532 9.20024 7.88311 9.41217 7.88311 9.63315C7.88311 9.85413 7.79616 10.0661 7.6399 10.2223ZM7.6399 6.08898L6.23407 7.49482C5.89962 7.83126 5.44777 8.02496 4.97349 8.03522C4.49921 8.04548 4.03941 7.87149 3.69073 7.54982L3.13323 7.06732C2.97564 6.91995 2.88127 6.71726 2.86995 6.5018C2.85863 6.28633 2.93123 6.07487 3.07251 5.9118C3.2138 5.74873 3.41277 5.64675 3.62765 5.62726C3.84252 5.60778 4.05659 5.67232 4.2249 5.80732L4.79907 6.30565C4.8849 6.38398 4.98907 6.38232 5.0549 6.31648L6.46073 4.91065C6.5381 4.83328 6.62995 4.77191 6.73104 4.73003C6.83213 4.68816 6.94048 4.66661 7.0499 4.66661C7.15932 4.66661 7.26766 4.68816 7.36875 4.73003C7.46984 4.77191 7.5617 4.83328 7.63907 4.91065C7.71644 4.98802 7.77781 5.07987 7.81968 5.18096C7.86155 5.28205 7.88311 5.3904 7.88311 5.49982C7.88311 5.60924 7.86155 5.71758 7.81968 5.81867C7.77781 5.91976 7.71727 6.01161 7.6399 6.08898ZM7.6399 13.2107C7.71735 13.288 7.7788 13.3798 7.82073 13.4809C7.86265 13.582 7.88423 13.6904 7.88423 13.7998C7.88423 13.9093 7.86265 14.0176 7.82073 14.1187C7.7788 14.2198 7.71735 14.3117 7.6399 14.389L6.23407 15.7948C5.89962 16.1313 5.44777 16.325 4.97349 16.3352C4.49921 16.3455 4.03941 16.1715 3.69073 15.8498L3.13323 15.3673C2.97564 15.22 2.88127 15.0173 2.86995 14.8018C2.85863 14.5863 2.93123 14.3749 3.07251 14.2118C3.2138 14.0487 3.41277 13.9467 3.62765 13.9273C3.84252 13.9078 4.05659 13.9723 4.2249 14.1073L4.79907 14.6056C4.8849 14.6832 4.98907 14.6823 5.0549 14.6165L6.46073 13.2107C6.53806 13.1332 6.62989 13.0717 6.73099 13.0298C6.83208 12.9879 6.94045 12.9663 7.0499 12.9663C7.15934 12.9663 7.26771 12.9879 7.36881 13.0298C7.46991 13.0717 7.56258 13.1332 7.6399 13.2107Z" fill="#344054"/>
</svg>
