<svg width="20" height="21" viewBox="0 0 20 21" fill="none" xmlns="http://www.w3.org/2000/svg">
<path d="M11.6667 9.66666H6.66671M8.33337 13H6.66671M13.3334 6.33332H6.66671M16.6667 6.16666V14.8333C16.6667 16.2335 16.6667 16.9335 16.3942 17.4683C16.1545 17.9387 15.7721 18.3212 15.3017 18.5608C14.7669 18.8333 14.0668 18.8333 12.6667 18.8333H7.33337C5.93324 18.8333 5.23318 18.8333 4.6984 18.5608C4.22799 18.3212 3.84554 17.9387 3.60586 17.4683C3.33337 16.9335 3.33337 16.2335 3.33337 14.8333V6.16666C3.33337 4.76653 3.33337 4.06646 3.60586 3.53168C3.84554 3.06128 4.22799 2.67882 4.6984 2.43914C5.23318 2.16666 5.93324 2.16666 7.33337 2.16666H12.6667C14.0668 2.16666 14.7669 2.16666 15.3017 2.43914C15.7721 2.67882 16.1545 3.06128 16.3942 3.53168C16.6667 4.06646 16.6667 4.76653 16.6667 6.16666Z" stroke="#344054" stroke-width="2" stroke-linecap="round" stroke-linejoin="round"/>
</svg>
