<svg width="20" height="21" viewBox="0 0 20 21" fill="none" xmlns="http://www.w3.org/2000/svg">
<path d="M5.0786 9.85732C5.0268 9.52351 4.99993 9.18154 4.99993 8.83332C4.99993 5.15142 8.00433 2.16666 11.7105 2.16666C15.4166 2.16666 18.421 5.15142 18.421 8.83332C18.421 9.66505 18.2677 10.4612 17.9876 11.1954C17.9294 11.3479 17.9003 11.4241 17.8871 11.4837C17.874 11.5426 17.869 11.5841 17.8676 11.6445C17.8661 11.7055 17.8744 11.7726 17.8909 11.9069L18.2264 14.6321C18.2627 14.9271 18.2809 15.0746 18.2318 15.1818C18.1888 15.2758 18.1125 15.3504 18.0175 15.3912C17.9092 15.4378 17.7621 15.4163 17.4681 15.3732L14.8137 14.9841C14.6751 14.9638 14.6058 14.9536 14.5427 14.954C14.4802 14.9543 14.437 14.9589 14.3759 14.9718C14.3142 14.9848 14.2353 15.0143 14.0774 15.0734C13.3414 15.3491 12.5436 15.5 11.7105 15.5C11.362 15.5 11.0197 15.4736 10.6855 15.4227M6.35961 18.8333C8.83036 18.8333 10.8333 16.7813 10.8333 14.25C10.8333 11.7187 8.83036 9.66666 6.35961 9.66666C3.88886 9.66666 1.88592 11.7187 1.88592 14.25C1.88592 14.7588 1.96686 15.2483 2.11625 15.7056C2.1794 15.8989 2.21098 15.9956 2.22134 16.0616C2.23216 16.1305 2.23406 16.1693 2.23003 16.2389C2.22617 16.3057 2.20947 16.3811 2.17608 16.5319L1.66663 18.8333L4.16229 18.4925C4.29851 18.4739 4.36662 18.4646 4.4261 18.465C4.48873 18.4654 4.52196 18.4688 4.58338 18.481C4.64171 18.4927 4.72843 18.5233 4.90185 18.5845C5.35879 18.7458 5.84922 18.8333 6.35961 18.8333Z" stroke="#344054" stroke-width="2" stroke-linecap="round" stroke-linejoin="round"/>
</svg>
