<svg width="20" height="21" viewBox="0 0 20 21" fill="none" xmlns="http://www.w3.org/2000/svg">
<g clip-path="url(#clip0_14_406)">
<path d="M10.8337 9.66657H17.5004C18.8787 9.66657 20.0004 8.54491 20.0004 7.16657V4.66657C20.0004 3.28824 18.8787 2.16658 17.5004 2.16658H15.3454L14.167 0.988242C13.852 0.673242 13.4337 0.499908 12.9887 0.499908H10.8337C9.45537 0.499908 8.3337 1.62157 8.3337 2.99991V4.66657H1.66703V1.33324C1.66703 0.872408 1.2937 0.499908 0.8337 0.499908C0.3737 0.499908 0.000366211 0.872408 0.000366211 1.33324V12.9999C0.000366211 15.2974 1.86953 17.1666 4.16703 17.1666H8.3337V17.9999C8.3337 19.3782 9.45537 20.4999 10.8337 20.4999H17.5004C18.8787 20.4999 20.0004 19.3782 20.0004 17.9999V15.4999C20.0004 14.1216 18.8787 12.9999 17.5004 12.9999H15.3454L14.167 11.8216C13.852 11.5066 13.4337 11.3332 12.9887 11.3332H10.8337C9.45537 11.3332 8.3337 12.4549 8.3337 13.8332V15.4999H4.16703C2.7887 15.4999 1.66703 14.3782 1.66703 12.9999V6.33324H8.3337V7.16657C8.3337 8.54491 9.45537 9.66657 10.8337 9.66657ZM10.0004 13.8332C10.0004 13.3732 10.3745 12.9999 10.8337 12.9999H12.9887L14.167 14.1782C14.482 14.4932 14.9004 14.6666 15.3454 14.6666H17.5004C17.9595 14.6666 18.3337 15.0399 18.3337 15.4999V17.9999C18.3337 18.4599 17.9595 18.8332 17.5004 18.8332H10.8337C10.3745 18.8332 10.0004 18.4599 10.0004 17.9999V13.8332ZM10.0004 2.99991C10.0004 2.53991 10.3745 2.16658 10.8337 2.16658H12.9887L14.167 3.34491C14.482 3.65991 14.9004 3.83324 15.3454 3.83324H17.5004C17.9595 3.83324 18.3337 4.20658 18.3337 4.66657V7.16657C18.3337 7.62657 17.9595 7.99991 17.5004 7.99991H10.8337C10.3745 7.99991 10.0004 7.62657 10.0004 7.16657V2.99991Z" fill="#344054"/>
</g>
<defs>
<clipPath id="clip0_14_406">
<rect width="20" height="20" fill="white" transform="translate(0 0.5)"/>
</clipPath>
</defs>
</svg>
